<svg width="224" height="156" viewBox="0 0 224 156" fill="none" xmlns="http://www.w3.org/2000/svg">
<path d="M222 114.739H223.25C223.25 114.69 223.247 114.641 223.241 114.592L222 114.739ZM207.727 123.85L207.514 125.082L207.727 123.85ZM157.661 88.0874C161.597 85.6363 168.044 83.401 174.563 84.5696C180.974 85.7191 187.717 90.2091 192.292 101.724L194.616 100.801C189.778 88.6269 182.409 83.4365 175.004 82.1089C167.706 80.8005 160.633 83.2915 156.339 85.9653L157.661 88.0874ZM194.381 102.101C195.742 100.596 197.894 99.6987 200.534 99.4933C203.165 99.2887 206.173 99.7844 209.07 100.945C214.888 103.276 219.96 108.147 220.759 114.886L223.241 114.592C222.304 106.675 216.382 101.181 210 98.6244C206.797 97.3412 203.405 96.7625 200.34 97.0009C197.284 97.2386 194.445 98.3023 192.527 100.424L194.381 102.101ZM220.75 114.739C220.75 116.654 219.201 118.876 216.575 120.561C213.997 122.216 210.743 123.102 207.94 122.618L207.514 125.082C211.076 125.697 214.958 124.57 217.926 122.665C220.845 120.792 223.25 117.909 223.25 114.739H220.75ZM207.94 122.618C194.486 120.296 190.438 108.911 194.534 101.892L192.374 100.632C187.212 109.478 192.725 122.529 207.514 125.082L207.94 122.618ZM193.323 102.505C195.017 102.684 197.768 103.255 200.41 104.377C203.079 105.511 205.444 107.124 206.634 109.271L208.82 108.059C207.233 105.195 204.261 103.297 201.388 102.076C198.488 100.845 195.491 100.22 193.585 100.019L193.323 102.505Z" fill="#0095DA" fill-opacity="0.5"/>
<path d="M3.5365 38.22L107.404 2V79.7026M3.5365 38.22V118.09M3.5365 38.22L2 117.47C2.3073 117.677 2.98336 118.09 3.2292 118.09L3.5365 119.947C3.78234 120.195 56.0849 142.752 82.2054 154C82.82 154 182.385 110.041 182.693 109.731C182.939 109.484 183 108.39 183 107.874M107.404 79.7026L183 107.874M107.404 79.7026L3.5365 118.09M183 107.874L82.5127 152.452L3.5365 118.09" stroke="black" stroke-opacity="0.5" stroke-width="2.5"/>
<path d="M12 42.2532L103 10V72.9557L12 108V49.3861" stroke="black" stroke-opacity="0.5" stroke-width="2"/>
<line x1="42.5212" y1="116.244" x2="75.2279" y2="130.438" stroke="black" stroke-opacity="0.5" stroke-width="0.5"/>
<line x1="49.9264" y1="113.159" x2="82.6331" y2="127.352" stroke="black" stroke-opacity="0.5" stroke-width="0.5"/>
<line x1="57.3317" y1="110.073" x2="90.0384" y2="124.267" stroke="black" stroke-opacity="0.5" stroke-width="0.5"/>
<line x1="64.737" y1="106.988" x2="97.4437" y2="121.181" stroke="black" stroke-opacity="0.5" stroke-width="0.5"/>
<line x1="72.1422" y1="103.902" x2="104.849" y2="118.096" stroke="black" stroke-opacity="0.5" stroke-width="0.5"/>
<line x1="79.5475" y1="100.817" x2="112.254" y2="115.01" stroke="black" stroke-opacity="0.5" stroke-width="0.5"/>
<line x1="86.9528" y1="97.7311" x2="119.66" y2="111.925" stroke="black" stroke-opacity="0.5" stroke-width="0.5"/>
<line x1="94.3581" y1="94.6455" x2="127.065" y2="108.839" stroke="black" stroke-opacity="0.5" stroke-width="0.5"/>
<line x1="101.764" y1="91.56" x2="134.47" y2="105.753" stroke="black" stroke-opacity="0.5" stroke-width="0.5"/>
<line x1="47.2629" y1="118.711" x2="111.442" y2="92.1753" stroke="black" stroke-opacity="0.5" stroke-width="0.5"/>
<line x1="52.8187" y1="120.562" x2="116.998" y2="94.643" stroke="black" stroke-opacity="0.5" stroke-width="0.5"/>
<line x1="58.371" y1="123.031" x2="122.55" y2="96.4952" stroke="black" stroke-opacity="0.5" stroke-width="0.5"/>
<line x1="63.9258" y1="125.499" x2="128.722" y2="98.9632" stroke="black" stroke-opacity="0.5" stroke-width="0.5"/>
<line x1="69.4797" y1="127.967" x2="134.276" y2="101.432" stroke="black" stroke-opacity="0.5" stroke-width="0.5"/>
<line x1="75.0326" y1="130.436" x2="140.446" y2="103.283" stroke="black" stroke-opacity="0.5" stroke-width="0.5"/>
</svg>
