<svg width="303" height="61" viewBox="0 0 303 61" fill="none" xmlns="http://www.w3.org/2000/svg">
<path d="M79.866 41.3807H76.2932V20.3908H81.2951L87.5176 36.4682H87.6367L93.9188 20.3908H98.8016V41.3807H95.2586V26.137H95.0204L89.0063 41.3807H85.9992L80.1042 26.137H79.866V41.3807Z" fill="#0095DA"/>
<path fill-rule="evenodd" clip-rule="evenodd" d="M121.846 41.3807H118.035L116.547 36.6766H108.121L106.573 41.3807H102.851L110.235 20.3908H114.73L121.846 41.3807ZM112.289 24.0529L109.163 33.5504H115.534L112.527 24.0529H112.289Z" fill="#0095DA"/>
<path d="M129.558 41.3807H125.895V20.3908H129.558V41.3807Z" fill="#0095DA"/>
<path d="M150.433 41.3807H146.771V23.636H139.864V20.3908H157.34V23.636H150.433V41.3807Z" fill="#0095DA"/>
<path d="M165.058 41.3807H161.396V20.3908H165.058V41.3807Z" fill="#0095DA"/>
<path d="M174.651 41.3807H171.078V20.3908H176.08L182.303 36.4682H182.422L188.704 20.3908H193.587V41.3807H190.044V26.137H189.806L183.791 41.3807H180.784L174.889 26.137H174.651V41.3807Z" fill="#0095DA"/>
<path d="M203.263 32.2107V38.2248H213.684V41.3807H199.601V20.3908H213.386V23.5467H203.263V29.144H212.433V32.2107H203.263Z" fill="#0095DA"/>
<path d="M232.045 20.3908V23.5467H222.22V29.7395H231.093V32.8954H222.22V41.3807H218.558V20.3908H232.045Z" fill="#0095DA"/>
<path d="M249.803 41.3807H236.614V20.3908H240.276V38.1355H249.803V41.3807Z" fill="#0095DA"/>
<path fill-rule="evenodd" clip-rule="evenodd" d="M261.268 41.7678C259.303 41.7678 257.586 41.3311 256.117 40.4578C254.668 39.5646 253.547 38.3042 252.753 36.6766C251.959 35.0292 251.562 33.0939 251.562 30.8709C251.562 28.6677 251.959 26.7523 252.753 25.1247C253.547 23.4772 254.668 22.2169 256.117 21.3435C257.586 20.4503 259.303 20.0037 261.268 20.0037C263.233 20.0037 264.94 20.4503 266.389 21.3435C267.857 22.2169 268.989 23.4772 269.783 25.1247C270.577 26.7523 270.974 28.6677 270.974 30.8709C270.974 33.0741 270.577 34.9994 269.783 36.6468C268.989 38.2943 267.857 39.5646 266.389 40.4578C264.94 41.3311 263.233 41.7678 261.268 41.7678ZM261.268 38.5523C263.094 38.5523 264.533 37.8675 265.585 36.498C266.657 35.1284 267.193 33.2527 267.193 30.8709C267.193 28.5089 266.657 26.6431 265.585 25.2735C264.533 23.904 263.094 23.2192 261.268 23.2192C259.422 23.2192 257.963 23.904 256.891 25.2735C255.839 26.6431 255.313 28.5089 255.313 30.8709C255.313 33.2527 255.839 35.1284 256.891 36.498C257.963 37.8675 259.422 38.5523 261.268 38.5523Z" fill="#0095DA"/>
<path d="M283.993 41.3807H279.23L274.049 20.3908H277.801L281.701 37.0041H281.939L286.107 20.3908H289.829L293.729 37.0041H293.967L298.463 20.3908H302.155L296.23 41.3807H291.526L287.983 26.3751H287.745L283.993 41.3807Z" fill="#0095DA"/>
<path d="M29.0928 17.4118C29.0928 16.6862 29.6809 16.0981 30.4065 16.0981C31.132 16.0981 31.7201 16.6862 31.7201 17.4118V29.235C31.7201 30.686 30.5438 31.8623 29.0928 31.8623V17.4118Z" fill="#0095DA"/>
<path d="M31.72 29.4266C31.72 30.8777 30.5437 32.054 29.0926 32.054L21.2105 32.054C20.4849 32.054 19.8968 31.4658 19.8968 30.7403C19.8968 30.0148 20.4849 29.4266 21.2105 29.4266L31.72 29.4266Z" fill="#0095DA"/>
<path d="M2.62744 27.5349L2.62744 26.2737L10.0366 26.2737V28.0393L4.36151 30.2358V30.2779L10.0366 32.4954L10.0366 34.2189L2.62744 34.2189L2.62744 32.9683H8.0083V32.8842L2.62744 30.7613L2.62744 29.6998L8.0083 27.619V27.5349L2.62744 27.5349Z" fill="#0095DA"/>
<path fill-rule="evenodd" clip-rule="evenodd" d="M33.478 57.9336H32.1328L31.6073 56.2731H28.6331L28.0866 57.9336H26.7729L29.3793 50.5244H30.9662L33.478 57.9336ZM30.1045 51.8171L29.001 55.1696H31.25L30.1885 51.8171H30.1045Z" fill="#0095DA"/>
<path d="M51.3808 31.0408C51.0613 31.0408 50.8217 31.0661 50.662 31.1165C50.5022 31.1586 50.3887 31.2426 50.3214 31.3687C50.2458 31.4949 50.1995 31.6714 50.1827 31.8984C50.0986 31.9236 49.9978 31.9447 49.8801 31.9615C49.7539 31.9699 49.6278 31.9741 49.5017 31.9741C49.5101 31.8228 49.5185 31.6462 49.5269 31.4444C49.5269 31.2426 49.5311 31.0366 49.5395 30.8265C49.5395 30.6079 49.5395 30.4061 49.5395 30.2211C49.5395 30.0277 49.5395 29.8302 49.5395 29.6284C49.5311 29.4266 49.5269 29.229 49.5269 29.0356C49.5185 28.8423 49.5101 28.6615 49.5017 28.4933C49.6278 28.4933 49.7497 28.4976 49.8674 28.506C49.9767 28.5144 50.0818 28.5396 50.1827 28.5816C50.1995 28.8002 50.2416 28.9726 50.3088 29.0987C50.3761 29.2248 50.4938 29.3131 50.662 29.3635C50.8217 29.4056 51.0613 29.4266 51.3808 29.4266L56.2236 29.4266C56.5347 29.4266 56.7743 29.4056 56.9424 29.3635C57.1106 29.3131 57.2283 29.2248 57.2956 29.0987C57.3628 28.9726 57.4049 28.796 57.4217 28.569C57.4973 28.5438 57.5982 28.527 57.7243 28.5186C57.842 28.5018 57.9682 28.4933 58.1027 28.4933C58.0859 28.7288 58.0733 28.9936 58.0648 29.2879C58.0648 29.5737 58.0648 29.868 58.0648 30.1707C58.0648 30.4817 58.0648 30.8012 58.0648 31.1291C58.0733 31.4486 58.0859 31.7303 58.1027 31.9741C57.9766 31.9741 57.8547 31.9699 57.7369 31.9615C57.6108 31.9447 57.5057 31.9236 57.4217 31.8984C57.4049 31.6714 57.3628 31.4949 57.2956 31.3687C57.2283 31.2426 57.1106 31.1586 56.9424 31.1165C56.7743 31.0661 56.5347 31.0408 56.2236 31.0408L51.3808 31.0408Z" fill="#0095DA"/>
<path d="M32.1853 9.98403C32.1853 11.0723 31.3031 11.9546 30.2148 11.9546C29.1265 11.9546 28.2442 11.0723 28.2442 9.98403L28.2442 0.131377L32.1853 0.131377L32.1853 9.98403Z" fill="#0095DA"/>
<path d="M43.2623 11.2059C42.8995 11.8342 42.0961 12.0495 41.4678 11.6868C40.8395 11.324 40.6242 10.5206 40.9869 9.89222L44.2712 4.20379L46.5465 5.51748L43.2623 11.2059Z" fill="#0095DA"/>
<path d="M17.162 10.9432C17.5248 11.5715 18.3282 11.7868 18.9565 11.424C19.5849 11.0613 19.8001 10.2578 19.4374 9.6295L16.1532 3.94107L13.8778 5.25475L17.162 10.9432Z" fill="#0095DA"/>
<path d="M17.5563 50.054C17.9191 49.4257 18.7225 49.2104 19.3508 49.5732C19.9791 49.9359 20.1944 50.7394 19.8317 51.3677L16.5474 57.0561L14.2721 55.7424L17.5563 50.054Z" fill="#0095DA"/>
<path d="M43.3937 49.3971C43.0309 48.7688 42.2275 48.5535 41.5991 48.9163C40.9708 49.2791 40.7555 50.0825 41.1183 50.7108L44.4025 56.3993L46.6779 55.0856L43.3937 49.3971Z" fill="#0095DA"/>
<path d="M51.4519 20.2729C50.8236 20.6356 50.0201 20.4204 49.6574 19.792C49.2946 19.1637 49.5099 18.3603 50.1382 17.9975L55.8266 14.7133L57.1403 16.9887L51.4519 20.2729Z" fill="#0095DA"/>
<path d="M8.97267 20.0101C9.60099 20.3729 10.4044 20.1576 10.7672 19.5293C11.13 18.901 10.9147 18.0975 10.2864 17.7348L4.59792 14.4506L3.28423 16.7259L8.97267 20.0101Z" fill="#0095DA"/>
<path d="M9.36671 40.987C9.99504 40.6243 10.7985 40.8396 11.1612 41.4679C11.524 42.0962 11.3087 42.8997 10.6804 43.2624L4.99196 46.5466L3.67828 44.2713L9.36671 40.987Z" fill="#0095DA"/>
<path d="M51.5832 40.3302C50.9549 39.9674 50.1515 40.1827 49.7887 40.811C49.4259 41.4394 49.6412 42.2428 50.2696 42.6056L55.958 45.8898L57.2717 43.6144L51.5832 40.3302Z" fill="#0095DA"/>
<path d="M60.4296 30.2148C60.4296 46.902 46.902 60.4296 30.2148 60.4296C13.5276 60.4296 0 46.902 0 30.2148C0 13.5276 13.5276 0 30.2148 0C46.902 0 60.4296 13.5276 60.4296 30.2148ZM3.02148 30.2148C3.02148 45.2333 15.1963 57.4081 30.2148 57.4081C45.2333 57.4081 57.4081 45.2333 57.4081 30.2148C57.4081 15.1963 45.2333 3.02148 30.2148 3.02148C15.1963 3.02148 3.02148 15.1963 3.02148 30.2148Z" fill="#0095DA"/>
</svg>
