<svg width="115" height="116" viewBox="0 0 115 116" fill="none" xmlns="http://www.w3.org/2000/svg">
<path fill-rule="evenodd" clip-rule="evenodd" d="M44.5463 23.5236V26.0447C31.6577 31.33 22.653 48.6898 22.9798 63.7349L22.9797 72.0911C16.3817 80.5733 16.7699 93.2204 33.231 93.2204H44.5463C44.5463 96.6862 45.897 100.01 48.3014 102.461C50.7054 104.912 53.9661 106.289 57.3662 106.289C60.7664 106.289 64.0271 104.912 66.4311 102.461C68.8351 100.01 70.1859 96.6862 70.1859 93.2204H81.5325C97.9622 93.2204 98.2003 80.5469 91.6032 72.0647L91.7867 63.7464C92.1188 48.6838 83.0965 31.3084 70.1859 26.0306V23.5236C70.1859 20.0576 68.8351 16.7337 66.4311 14.283C64.0271 11.8322 60.7664 10.4554 57.3662 10.4554C53.9661 10.4554 50.7054 11.8322 48.3014 14.283C45.897 16.7337 44.5463 20.0576 44.5463 23.5236ZM61.6395 23.5236C61.6395 23.5236 61.6366 23.7002 61.6313 23.788C60.2398 23.6134 58.822 23.5236 57.3835 23.5236C55.9331 23.5236 54.5037 23.6149 53.1012 23.7923C53.0954 23.7031 53.093 23.6134 53.093 23.5236C53.093 22.3683 53.543 21.2603 54.3446 20.4434C55.1458 19.6264 56.233 19.1675 57.3662 19.1675C58.4995 19.1675 59.5862 19.6264 60.3879 20.4434C61.189 21.2603 61.6395 22.3683 61.6395 23.5236ZM53.093 93.2204C53.093 94.3757 53.543 95.484 54.3446 96.301C55.1458 97.1175 56.233 97.5765 57.3662 97.5765C58.4995 97.5765 59.5862 97.1175 60.3879 96.301C61.189 95.484 61.6395 94.3757 61.6395 93.2204H53.093ZM81.5325 84.5082C85.1833 84.5082 87.1527 80.143 84.777 77.3173C83.6222 75.9445 83.0074 74.198 83.0472 72.4049L83.2422 63.5509C83.5685 48.7607 71.896 32.2357 57.3835 32.2357C42.8741 32.2357 31.2031 48.7552 31.5242 63.5418L31.7167 72.4064C31.7557 74.1989 31.1406 75.945 29.9865 77.3173C27.6105 80.143 29.5801 84.5082 33.231 84.5082H81.5325ZM81.362 16.2151C82.8694 14.0402 85.8551 13.4992 88.03 15.0069C93.5294 18.819 100.125 27.9616 103.726 38.7866C104.561 41.2976 103.202 44.0104 100.692 44.8457C98.1802 45.6811 95.4677 44.3226 94.632 41.8116C91.469 32.3029 85.8767 25.1749 82.5704 22.883C80.3955 21.3753 79.8545 18.39 81.362 16.2151ZM26.0201 15.0069C28.1951 13.4992 31.1804 14.0402 32.688 16.2151C34.1956 18.39 33.6547 21.3753 31.4798 22.883C28.1735 25.1749 22.581 32.3029 19.4178 41.8116C18.5825 44.3226 15.8697 45.6811 13.3586 44.8457C10.8475 44.0104 9.48907 41.2976 10.3244 38.7866C13.9254 27.9616 20.5207 18.819 26.0201 15.0069Z" fill="#FBBC04"/>
</svg>
