<svg width="29" height="35" viewBox="0 0 29 35" fill="none" xmlns="http://www.w3.org/2000/svg">
<path d="M18.0781 10.5859C19.2758 10.164 20.4528 9.85582 21.4902 9.93848L21.5254 9.94141L21.5596 9.94238C22.4703 9.97247 23.3652 10.1879 24.1914 10.5742L24.541 10.75C25.0094 11.0029 25.4455 11.3103 25.8418 11.6641C25.1697 12.2327 24.5846 12.9024 24.1094 13.6523L23.9521 13.9111C23.1322 15.3098 22.7149 16.911 22.7461 18.5342V18.5332C22.7497 20.2413 23.2216 21.9141 24.1084 23.3662L24.292 23.6553C25.0317 24.7717 26.0018 25.7062 27.1289 26.4014C26.6134 27.6454 25.8309 29.1944 24.874 30.5479C24.2277 31.462 23.5426 32.2301 22.8584 32.7568C22.1716 33.2854 21.5828 33.499 21.0908 33.499C20.3291 33.499 19.7461 33.2682 18.8223 32.9033C17.9126 32.544 16.7579 32.0986 15.1914 32.0986C13.6337 32.0987 12.4373 32.5384 11.5039 32.8994C10.5205 33.2798 9.97029 33.499 9.33496 33.499H9.29102C8.84977 33.512 8.26832 33.3144 7.54297 32.7432C6.82693 32.1792 6.09864 31.3497 5.40723 30.3691C4.19551 28.6506 3.22733 26.656 2.71387 25.3291L2.52246 24.8047L2.51855 24.7939L2.39941 24.4395C1.82305 22.666 1.51951 20.8122 1.5 18.9434C1.5 12.7908 5.43444 10.0312 8.88184 10.0312C9.62513 10.0313 10.5938 10.3191 11.6943 10.71C12.193 10.8871 12.7556 11.0982 13.2236 11.25C13.6595 11.3913 14.242 11.5625 14.7812 11.5625C15.355 11.5624 15.987 11.3479 16.4268 11.1924C16.6821 11.1021 16.9584 10.9982 17.2295 10.8965C17.506 10.7928 17.7874 10.6884 18.0781 10.5859ZM20.1436 1.92969C20.1205 2.04616 20.0954 2.16229 20.0654 2.27734L19.9805 2.57129C19.7999 3.14177 19.5342 3.67866 19.1953 4.16504H19.1172L18.668 4.7832C18.189 5.44143 17.5607 5.97059 16.8389 6.32715L16.5654 6.45215C16.4118 6.51675 16.2544 6.57061 16.0957 6.61914C16.1522 6.35158 16.2257 6.08738 16.3184 5.8291C16.5951 5.05781 17.0257 4.35309 17.582 3.75977L17.5996 3.74219L17.6152 3.72363C18.3149 2.9266 19.1831 2.31644 20.1436 1.92969Z" stroke="#0095DA" stroke-width="3"/>
</svg>