<svg width="100" height="101" viewBox="0 0 100 101" fill="none" xmlns="http://www.w3.org/2000/svg">
<g clip-path="url(#clip0_122_128)">
<path d="M76.3158 24.5563H23.6842V77.1879H76.3158V24.5563Z" fill="white"/>
<path d="M76.3158 100.872L100 77.1878L88.1579 75.1674L76.3158 77.1878L74.1544 88.0197L76.3158 100.872Z" fill="#EA4335"/>
<path d="M0 77.1878V92.9773C0 97.3392 3.53289 100.872 7.89474 100.872H23.6842L26.116 89.0299L23.6842 77.1878L10.7809 75.1674L0 77.1878Z" fill="#188038"/>
<path d="M100 24.5563V8.76681C100 4.40496 96.4671 0.87207 92.1053 0.87207H76.3158C74.8748 6.74545 74.1544 11.0678 74.1544 13.8391C74.1544 16.6105 74.8748 20.1829 76.3158 24.5563C81.5539 26.0562 85.5013 26.8062 88.1579 26.8062C90.8145 26.8062 94.7619 26.0562 100 24.5563Z" fill="#1967D2"/>
<path d="M100 24.5563H76.3158V77.1879H100V24.5563Z" fill="#FBBC04"/>
<path d="M76.3158 77.1879H23.6842V100.872H76.3158V77.1879Z" fill="#34A853"/>
<path d="M76.3158 0.87207H7.89474C3.53289 0.87207 0 4.40496 0 8.76681V77.1879H23.6842V24.5563H76.3158V0.87207Z" fill="#4285F4"/>
<path d="M34.4803 65.3852C32.5132 64.0563 31.1513 62.1155 30.4079 59.5497L34.9737 57.6681C35.3882 59.2471 36.1118 60.4708 37.1447 61.3392C38.1711 62.2076 39.4211 62.6352 40.8816 62.6352C42.375 62.6352 43.6579 62.1813 44.7303 61.2734C45.8026 60.3655 46.3421 59.2076 46.3421 57.8063C46.3421 56.3721 45.7763 55.201 44.6447 54.2931C43.5132 53.3852 42.0921 52.9313 40.3947 52.9313H37.7566V48.4116H40.125C41.5855 48.4116 42.8158 48.0168 43.8158 47.2273C44.8158 46.4379 45.3158 45.3589 45.3158 43.9839C45.3158 42.7602 44.8684 41.7866 43.9737 41.0563C43.079 40.326 41.9474 39.9576 40.5724 39.9576C39.2303 39.9576 38.1645 40.3129 37.375 41.03C36.5861 41.749 35.9929 42.6568 35.6513 43.6681L31.1316 41.7866C31.7303 40.0892 32.829 38.5892 34.4408 37.2931C36.0526 35.9971 38.1118 35.3458 40.6118 35.3458C42.4605 35.3458 44.125 35.701 45.5987 36.4181C47.0724 37.1352 48.2303 38.1287 49.0658 39.3918C49.9013 40.6616 50.3158 42.0826 50.3158 43.6616C50.3158 45.2734 49.9276 46.6352 49.1513 47.7537C48.375 48.8721 47.4211 49.7273 46.2895 50.326V50.5958C47.7506 51.1982 49.0198 52.1876 49.9605 53.4576C50.9145 54.7405 51.3947 56.2734 51.3947 58.0629C51.3947 59.8523 50.9408 61.451 50.0329 62.8523C49.125 64.2537 47.8684 65.3589 46.2763 66.1616C44.6776 66.9642 42.8816 67.3721 40.8882 67.3721C38.579 67.3787 36.4474 66.7142 34.4803 65.3852ZM62.5263 42.7273L57.5132 46.3523L55.0066 42.5497L64 36.0629H67.4474V66.6616H62.5263V42.7273Z" fill="#4285F4"/>
</g>
<defs>
<clipPath id="clip0_122_128">
<rect width="100" height="100" fill="white" transform="translate(0 0.87207)"/>
</clipPath>
</defs>
</svg>
