<svg width="128" height="128" viewBox="0 0 128 128" fill="none" xmlns="http://www.w3.org/2000/svg">
<path fill-rule="evenodd" clip-rule="evenodd" d="M21.28 89.888L14.272 108.576C14.0029 109.295 13.9465 110.077 14.1095 110.827C14.2725 111.577 14.6481 112.265 15.1913 112.808C15.7346 113.35 16.4226 113.725 17.1731 113.887C17.9237 114.05 18.7051 113.992 19.424 113.723L38.1067 106.715C40.245 105.914 42.1872 104.664 43.8027 103.051L97.92 48.9333C97.92 48.9333 96.032 43.2746 90.3787 37.616C84.7253 31.9626 79.0613 30.0746 79.0613 30.0746L24.944 84.192C23.3302 85.8074 22.0809 87.7496 21.28 89.888ZM86.608 22.528L93.984 15.152C95.3067 13.8293 97.072 12.9866 98.9173 13.296C101.515 13.7226 105.488 15.0133 109.232 18.7626C112.981 22.512 114.272 26.48 114.699 29.0773C115.008 30.9226 114.165 32.688 112.843 34.0106L105.461 41.3866C105.461 41.3866 103.579 35.7333 97.92 30.08C92.2667 24.416 86.608 22.528 86.608 22.528Z" fill="#ACACAC"/>
</svg>
