<svg width="12" height="12" viewBox="0 0 12 12" fill="none" xmlns="http://www.w3.org/2000/svg">
<path d="M10.5815 3.22978L5.84035 7.97087C5.36823 8.443 3.96675 8.66166 3.65366 8.34857C3.34056 8.03548 3.55426 6.63402 4.02639 6.16189L8.77249 1.41581C8.88953 1.28812 9.03121 1.18548 9.18905 1.11406C9.34684 1.04265 9.5175 1.00393 9.6907 1.00028C9.86384 0.996641 10.036 1.02812 10.1967 1.09283C10.3573 1.15754 10.5032 1.25415 10.6256 1.37681C10.7479 1.49946 10.8441 1.64562 10.9083 1.80647C10.9726 1.96732 11.0036 2.13952 10.9995 2.31269C10.9954 2.48586 10.9562 2.65642 10.8844 2.81403C10.8125 2.97165 10.7095 3.11308 10.5815 3.22978Z" stroke="white" stroke-linecap="round" stroke-linejoin="round"/>
<path d="M5.47275 2.03702H2.98789C2.46067 2.03702 1.95507 2.24645 1.58227 2.61926C1.20947 2.99206 1 3.49769 1 4.02491V8.99463C1 9.52187 1.20947 10.0275 1.58227 10.4003C1.95507 10.7731 2.46067 10.9825 2.98789 10.9825H8.45459C9.5529 10.9825 9.94551 10.088 9.94551 8.99463V6.50977" stroke="white" stroke-linecap="round" stroke-linejoin="round"/>
</svg>