<svg width="50" height="50" viewBox="0 0 50 50" fill="none" xmlns="http://www.w3.org/2000/svg">
<path d="M25 36.9792C25.8629 36.9792 26.5625 36.2796 26.5625 35.4167V22.9167C26.5625 22.0538 25.8629 21.3542 25 21.3542C24.1371 21.3542 23.4375 22.0538 23.4375 22.9167V35.4167C23.4375 36.2796 24.1371 36.9792 25 36.9792Z" fill="#0095DA"/>
<path d="M25 14.5833C26.1506 14.5833 27.0833 15.5161 27.0833 16.6666C27.0833 17.8172 26.1506 18.75 25 18.75C23.8494 18.75 22.9167 17.8172 22.9167 16.6666C22.9167 15.5161 23.8494 14.5833 25 14.5833Z" fill="#0095DA"/>
<path fill-rule="evenodd" clip-rule="evenodd" d="M2.60416 25C2.60416 12.6311 12.6311 2.60419 25 2.60419C37.3689 2.60419 47.3958 12.6311 47.3958 25C47.3958 37.369 37.3689 47.3959 25 47.3959C12.6311 47.3959 2.60416 37.369 2.60416 25ZM25 5.72919C14.357 5.72919 5.72916 14.357 5.72916 25C5.72916 35.6429 14.357 44.2709 25 44.2709C35.6429 44.2709 44.2708 35.6429 44.2708 25C44.2708 14.357 35.6429 5.72919 25 5.72919Z" fill="#0095DA"/>
</svg>