<svg width="50" height="50" viewBox="0 0 50 50" fill="none" xmlns="http://www.w3.org/2000/svg">
<path d="M25 36.9794C25.8629 36.9794 26.5625 36.2798 26.5625 35.4169V22.9169C26.5625 22.054 25.8629 21.3544 25 21.3544C24.1371 21.3544 23.4375 22.054 23.4375 22.9169V35.4169C23.4375 36.2798 24.1371 36.9794 25 36.9794Z" fill="black"/>
<path d="M25 14.5836C26.1506 14.5836 27.0833 15.5163 27.0833 16.6669C27.0833 17.8175 26.1506 18.7502 25 18.7502C23.8494 18.7502 22.9167 17.8175 22.9167 16.6669C22.9167 15.5163 23.8494 14.5836 25 14.5836Z" fill="black"/>
<path fill-rule="evenodd" clip-rule="evenodd" d="M2.60416 25.0003C2.60416 12.6314 12.6311 2.60443 25 2.60443C37.3689 2.60443 47.3958 12.6314 47.3958 25.0003C47.3958 37.3692 37.3689 47.3961 25 47.3961C12.6311 47.3961 2.60416 37.3692 2.60416 25.0003ZM25 5.72943C14.357 5.72943 5.72916 14.3573 5.72916 25.0003C5.72916 35.6432 14.357 44.2711 25 44.2711C35.6429 44.2711 44.2708 35.6432 44.2708 25.0003C44.2708 14.3573 35.6429 5.72943 25 5.72943Z" fill="black"/>
</svg>