<svg width="45" height="46" viewBox="0 0 45 46" fill="none" xmlns="http://www.w3.org/2000/svg">
<circle opacity="0.1" cx="22.4667" cy="23.0666" r="22.4667" fill="#0095DA"/>
<path d="M26.9137 15.2764H17.5526C14.7443 15.2764 12.8721 16.6805 12.8721 19.9569V26.5097C12.8721 29.7861 14.7443 31.1903 17.5526 31.1903H26.9137C29.7221 31.1903 31.5943 29.7861 31.5943 26.5097V19.9569C31.5943 16.6805 29.7221 15.2764 26.9137 15.2764ZM27.3537 20.9773L24.4237 23.3176C23.8058 23.8137 23.0195 24.0571 22.2332 24.0571C21.4468 24.0571 20.6512 23.8137 20.0427 23.3176L17.1127 20.9773C16.8131 20.7339 16.7663 20.2846 17.0003 19.985C17.2437 19.6855 17.6837 19.6293 17.9832 19.8727L20.9133 22.213C21.6247 22.784 22.8323 22.784 23.5437 22.213L26.4738 19.8727C26.7733 19.6293 27.2227 19.6761 27.4567 19.985C27.7001 20.2846 27.6533 20.7339 27.3537 20.9773Z" fill="#0095DA"/>
</svg>