<svg width="45" height="52" viewBox="0 0 45 52" fill="none" xmlns="http://www.w3.org/2000/svg">
<path fill-rule="evenodd" clip-rule="evenodd" d="M6.29314 26.0096C5.95549 16.5441 13.1488 8.58297 22.3766 8.20923C31.6045 8.58297 38.7978 16.5441 38.4602 26.0096C38.4602 29.941 42.6251 33.771 42.7472 37.7114C42.7472 37.7672 42.7472 37.8227 42.7472 37.8785C42.8373 40.4031 40.9185 42.5261 38.4572 42.6249H29.1669C29.1755 44.5593 28.4645 46.4244 27.1791 47.8399C25.9429 49.2167 24.2014 50 22.3766 50C20.5517 50 18.8105 49.2167 17.5744 47.8399C16.2887 46.4244 15.5778 44.5593 15.5864 42.6249H6.29314C3.83195 42.5261 1.91293 40.4031 2.00305 37.8785C2.00305 37.8227 2.00305 37.7672 2.00305 37.7114C2.12822 33.7829 6.29314 29.944 6.29314 26.0096Z" stroke="#0095DA" stroke-width="3" stroke-linecap="round" stroke-linejoin="round"/>
<path d="M15.5864 40.3859C14.3499 40.3859 13.3475 41.3884 13.3475 42.6248C13.3475 43.8612 14.3499 44.8637 15.5864 44.8637V40.3859ZM29.1669 44.8637C30.4033 44.8637 31.4057 43.8612 31.4057 42.6248C31.4057 41.3884 30.4033 40.3859 29.1669 40.3859V44.8637ZM25.2871 4.47771C26.5235 4.47771 27.5259 3.47533 27.5259 2.23885C27.5259 1.00238 26.5235 0 25.2871 0V4.47771ZM19.4661 0C18.2296 0 17.2272 1.00238 17.2272 2.23885C17.2272 3.47533 18.2296 4.47771 19.4661 4.47771V0ZM15.5864 44.8637H29.1669V40.3859H15.5864V44.8637ZM25.2871 0H19.4661V4.47771H25.2871V0Z" fill="#0095DA"/>
</svg>