<svg width="41" height="40" viewBox="0 0 41 40" fill="none" xmlns="http://www.w3.org/2000/svg">
<circle cx="20.1738" cy="20" r="20" fill="#D9D9D9"/>
<path fill-rule="evenodd" clip-rule="evenodd" d="M25 15C25 12.2375 22.7625 10 20 10C17.2375 10 15 12.2375 15 15C15 17.7625 17.2375 20 20 20C22.7625 20 25 17.7625 25 15ZM10 27.5V28.7438C10 29.4376 10.5624 30 11.2563 30H28.7438C29.4376 30 30 29.4376 30 28.7438V27.5C30 23.125 23.3375 21.875 20 21.875C16.6625 21.875 10 23.125 10 27.5Z" fill="white"/>
</svg>
