<svg width="50" height="50" viewBox="0 0 50 50" fill="none" xmlns="http://www.w3.org/2000/svg">
<g clip-path="url(#clip0_582_295)">
<path d="M23.5371 4.57387C24.3623 4.26438 25.2614 4.22569 26.1051 4.45781L26.4629 4.57387L41.0462 10.0426C42.5643 10.6118 43.6039 12.0041 43.7358 13.5993L43.75 13.944V25.1163C43.75 32.0095 39.9701 38.3283 33.9396 41.5981L33.3852 41.8869L26.3975 45.3807C25.6155 45.7718 24.7105 45.8153 23.9011 45.5111L23.6025 45.3807L16.6147 41.8869C10.4494 38.8041 6.48806 32.5974 6.26037 25.7413L6.25 25.1163V13.944C6.25 12.3229 7.18853 10.8606 8.63587 10.177L8.95365 10.0426L23.5371 4.57387ZM25 8.47525L10.4167 13.944V25.1163C10.4167 30.4559 13.3329 35.3527 17.9902 37.9045L18.4781 38.1601L25 41.4211L31.5219 38.1601C36.2978 35.7722 39.3733 30.9738 39.573 25.667L39.5833 25.1163V13.944L25 8.47525ZM32.1519 17.9775C32.9656 17.1639 34.2846 17.1639 35.0981 17.9775C35.8493 18.7285 35.9071 19.9103 35.2715 20.7275L35.0981 20.9238L24.1931 31.829C23.3621 32.6601 22.0515 32.7195 21.152 32.0071L20.9521 31.829L15.9434 26.8203C15.1299 26.0067 15.1299 24.6876 15.9434 23.874C16.6945 23.1231 17.8762 23.0653 18.6935 23.7007L18.8897 23.874L22.5725 27.5569L32.1519 17.9775Z" fill="#0095DA"/>
</g>
<defs>
<clipPath id="clip0_582_295">
<rect width="50" height="50" fill="white" transform="translate(0 0.000244141)"/>
</clipPath>
</defs>
</svg>