<svg width="50" height="50" viewBox="0 0 50 50" fill="none" xmlns="http://www.w3.org/2000/svg">
<path fill-rule="evenodd" clip-rule="evenodd" d="M25 17.1875C20.6853 17.1875 17.1875 20.6853 17.1875 25C17.1875 29.3148 20.6853 32.8125 25 32.8125C29.3148 32.8125 32.8125 29.3148 32.8125 25C32.8125 20.6853 29.3148 17.1875 25 17.1875ZM20.3125 25C20.3125 22.4112 22.4112 20.3125 25 20.3125C27.5887 20.3125 29.6875 22.4112 29.6875 25C29.6875 27.5887 27.5887 29.6875 25 29.6875C22.4112 29.6875 20.3125 27.5887 20.3125 25Z" fill="black"/>
<path fill-rule="evenodd" clip-rule="evenodd" d="M24.9473 2.60419C24.0215 2.60417 23.2483 2.60417 22.6138 2.64746C21.9531 2.69254 21.3292 2.78971 20.7242 3.04029C19.3204 3.62177 18.2051 4.73708 17.6236 6.1409C17.3209 6.87173 17.2389 7.64194 17.2076 8.4791C17.1824 9.15208 16.8428 9.71358 16.3416 10.003C15.8404 10.2923 15.1843 10.3057 14.5889 9.99102C13.8482 9.59954 13.1402 9.28542 12.3559 9.18217C10.8495 8.98383 9.32589 9.39208 8.12041 10.3171C7.60091 10.7157 7.20474 11.2075 6.83541 11.7571C6.4806 12.285 6.09412 12.9545 5.63114 13.7564L5.57853 13.8475C5.11553 14.6494 4.72903 15.3189 4.44922 15.8901C4.15795 16.4848 3.9301 17.0738 3.84462 17.723C3.64628 19.2294 4.05453 20.753 4.97951 21.9586C5.46101 22.5859 6.08695 23.0421 6.7962 23.4877C7.36658 23.8461 7.6831 24.4211 7.68305 25C7.68303 25.5788 7.36651 26.1538 6.7962 26.5121C6.08687 26.9577 5.46087 27.414 4.97933 28.0415C4.05433 29.2469 3.6461 30.7704 3.84441 32.2769C3.92989 32.9261 4.15774 33.5152 4.44901 34.1098C4.72883 34.6811 5.11533 35.3504 5.5783 36.1523L5.63093 36.2436C6.09391 37.0454 6.48039 37.7148 6.8352 38.2427C7.20453 38.7923 7.6007 39.2842 8.1202 39.6827C9.32568 40.6077 10.8492 41.0161 12.3557 40.8177C13.1399 40.7144 13.8479 40.4004 14.5886 40.009C15.184 39.6942 15.8402 39.7075 16.3415 39.9971C16.8428 40.2865 17.1824 40.8479 17.2076 41.5211C17.2389 42.3581 17.3209 43.1284 17.6236 43.8592C18.2051 45.2629 19.3204 46.3784 20.7242 46.9598C21.3292 47.2104 21.9531 47.3075 22.6138 47.3525C23.2483 47.3959 24.0215 47.3959 24.9473 47.3959H25.0525C25.9786 47.3959 26.7515 47.3959 27.3863 47.3525C28.0469 47.3075 28.6708 47.2104 29.2758 46.9598C30.6796 46.3784 31.795 45.2629 32.3765 43.8592C32.6792 43.1284 32.7611 42.3581 32.7923 41.5209C32.8175 40.8479 33.1571 40.2865 33.6583 39.9969C34.1596 39.7075 34.8158 39.6942 35.4113 40.0088C36.1519 40.4002 36.8598 40.7144 37.6442 40.8175C39.1506 41.0159 40.6742 40.6077 41.8796 39.6827C42.3992 39.284 42.7952 38.7923 43.1646 38.2427C43.5194 37.7148 43.9058 37.0454 44.3688 36.2436L44.4215 36.1523C44.8844 35.3504 45.2711 34.6809 45.5508 34.1096C45.8421 33.515 46.0698 32.9261 46.1554 32.2769C46.3538 30.7702 45.9454 29.2467 45.0204 28.0413C44.539 27.4138 43.9129 26.9577 43.2038 26.5121C42.6333 26.1538 42.3169 25.5788 42.3169 24.9998C42.3169 24.4211 42.6333 23.8463 43.2036 23.4879C43.9131 23.0423 44.5392 22.5863 45.0206 21.9586C45.9456 20.7531 46.354 19.2296 46.1556 17.7231C46.07 17.0739 45.8423 16.4849 45.5511 15.8902C45.2713 15.319 44.8848 14.6497 44.4217 13.8478L44.3692 13.7566C43.9061 12.9547 43.5196 12.2852 43.1648 11.7572C42.7954 11.2077 42.3994 10.7159 41.8798 10.3172C40.6744 9.39223 39.1508 8.98398 37.6442 9.18231C36.86 9.28556 36.1521 9.59965 35.4115 9.9911C34.8161 10.3058 34.1598 10.2924 33.6586 10.003C33.1573 9.71362 32.8175 9.15204 32.7923 8.479C32.7611 7.64185 32.6792 6.87169 32.3765 6.1409C31.795 4.73708 30.6796 3.62177 29.2758 3.04029C28.6708 2.78971 28.0469 2.69254 27.3863 2.64746C26.7515 2.60417 25.9786 2.60417 25.0525 2.60419H24.9473ZM21.92 5.92742C22.0808 5.86083 22.325 5.79944 22.8265 5.76521C23.3421 5.73004 24.0079 5.72919 25 5.72919C25.9921 5.72919 26.6579 5.73004 27.1733 5.76521C27.675 5.79944 27.9192 5.86083 28.0798 5.92742C28.7179 6.19173 29.225 6.69869 29.4892 7.33679C29.5727 7.53806 29.6417 7.85183 29.6696 8.59579C29.7313 10.2466 30.5833 11.836 32.0961 12.7094C33.6086 13.5827 35.4113 13.5259 36.8717 12.7539C37.5298 12.4061 37.8363 12.309 38.0521 12.2806C38.7369 12.1904 39.4294 12.376 39.9773 12.7964C40.1154 12.9024 40.2906 13.0831 40.5711 13.5004C40.8594 13.9293 41.1929 14.5054 41.689 15.3646C42.185 16.2238 42.5173 16.8008 42.7446 17.2649C42.9656 17.7163 43.0346 17.9585 43.0573 18.131C43.1475 18.8158 42.9619 19.5083 42.5415 20.0562C42.4088 20.2291 42.1717 20.4458 41.5411 20.8419C40.1425 21.7209 39.1921 23.2534 39.1919 24.9998C39.1919 26.7465 40.1423 28.2792 41.5411 29.1581C42.1715 29.5542 42.4086 29.7709 42.5413 29.9438C42.9617 30.4917 43.1473 31.1842 43.0571 31.869C43.0344 32.0415 42.9654 32.2836 42.7444 32.735C42.5171 33.199 42.1848 33.7761 41.6888 34.6352C41.1927 35.4944 40.8592 36.0706 40.5708 36.4996C40.2904 36.9167 40.1152 37.0975 39.9771 37.2034C39.4292 37.624 38.7367 37.8094 38.0519 37.7194C37.8361 37.6909 37.5296 37.5938 36.8715 37.2461C35.4111 36.474 33.6083 36.4173 32.0956 37.2906C30.5833 38.164 29.7313 39.7534 29.6696 41.4042C29.6417 42.1481 29.5727 42.4619 29.4892 42.6633C29.225 43.3013 28.7179 43.8083 28.0798 44.0727C27.9192 44.1392 27.675 44.2006 27.1733 44.2348C26.6579 44.27 25.9921 44.2709 25 44.2709C24.0079 44.2709 23.3421 44.27 22.8265 44.2348C22.325 44.2006 22.0808 44.1392 21.92 44.0727C21.2821 43.8083 20.775 43.3013 20.5107 42.6633C20.4273 42.4619 20.3582 42.1481 20.3304 41.4042C20.2687 39.7536 19.4166 38.164 17.904 37.2906C16.3913 36.4173 14.5888 36.4742 13.1283 37.2461C12.4701 37.594 12.1638 37.6911 11.9478 37.7194C11.2631 37.8096 10.5705 37.624 10.0226 37.2036C9.88455 37.0977 9.70928 36.9169 9.42889 36.4996C9.14066 36.0709 8.80701 35.4946 8.31097 34.6354C7.81491 33.7763 7.48274 33.1992 7.25543 32.7352C7.0343 32.2838 6.96539 32.0415 6.94268 31.869C6.85253 31.1842 7.0381 30.4917 7.45855 29.9438C7.59118 29.7711 7.82837 29.5542 8.45876 29.1581C9.85747 28.2794 10.808 26.7467 10.8081 25.0002C10.8082 23.2534 9.85762 21.7206 8.45878 20.8417C7.82853 20.4456 7.59137 20.2289 7.45874 20.0561C7.0383 19.5081 6.85274 18.8156 6.94289 18.1309C6.9656 17.9584 7.03451 17.7162 7.25564 17.2648C7.48295 16.8007 7.81512 16.2236 8.31116 15.3645C8.80722 14.5053 9.14085 13.9291 9.4291 13.5002C9.70949 13.083 9.88476 12.9022 10.0228 12.7963C10.5707 12.3759 11.2633 12.1903 11.948 12.2804C12.164 12.3089 12.4703 12.4059 13.1286 12.7539C14.589 13.5258 16.3915 13.5826 17.9041 12.7093C19.4166 11.836 20.2687 10.2466 20.3304 8.5959C20.3582 7.85188 20.4273 7.53808 20.5107 7.33679C20.775 6.69869 21.2821 6.19173 21.92 5.92742Z" fill="black"/>
</svg>