<svg width="50" height="50" viewBox="0 0 50 50" fill="none" xmlns="http://www.w3.org/2000/svg">
<path fill-rule="evenodd" clip-rule="evenodd" d="M25 17.1875C20.6853 17.1875 17.1875 20.6853 17.1875 25C17.1875 29.3148 20.6853 32.8125 25 32.8125C29.3148 32.8125 32.8125 29.3148 32.8125 25C32.8125 20.6853 29.3148 17.1875 25 17.1875ZM20.3125 25C20.3125 22.4112 22.4112 20.3125 25 20.3125C27.5887 20.3125 29.6875 22.4112 29.6875 25C29.6875 27.5887 27.5887 29.6875 25 29.6875C22.4112 29.6875 20.3125 27.5887 20.3125 25Z" fill="#0095DA"/>
<path fill-rule="evenodd" clip-rule="evenodd" d="M24.9473 2.60425C24.0215 2.60423 23.2483 2.60423 22.6138 2.64752C21.9531 2.6926 21.3292 2.78977 20.7242 3.04035C19.3204 3.62183 18.2051 4.73714 17.6236 6.14096C17.3209 6.87179 17.2389 7.642 17.2076 8.47917C17.1824 9.15214 16.8428 9.71364 16.3416 10.003C15.8404 10.2924 15.1843 10.3058 14.5889 9.99108C13.8482 9.5996 13.1402 9.28548 12.3559 9.18223C10.8495 8.98389 9.32589 9.39214 8.12041 10.3171C7.60091 10.7158 7.20474 11.2076 6.83541 11.7572C6.4806 12.2851 6.09412 12.9546 5.63114 13.7565L5.57853 13.8476C5.11553 14.6495 4.72903 15.3189 4.44922 15.8901C4.15795 16.4848 3.9301 17.0738 3.84462 17.723C3.64628 19.2295 4.05453 20.753 4.97951 21.9586C5.46101 22.5859 6.08695 23.0422 6.7962 23.4878C7.36658 23.8461 7.6831 24.4211 7.68305 25.0001C7.68303 25.5788 7.36651 26.1538 6.7962 26.5122C6.08687 26.9578 5.46087 27.414 4.97933 28.0415C4.05433 29.247 3.6461 30.7705 3.84441 32.277C3.92989 32.9261 4.15774 33.5153 4.44901 34.1099C4.72883 34.6811 5.11533 35.3505 5.5783 36.1524L5.63093 36.2436C6.09391 37.0455 6.48039 37.7149 6.8352 38.2428C7.20453 38.7924 7.6007 39.2842 8.1202 39.6828C9.32568 40.6078 10.8492 41.0161 12.3557 40.8178C13.1399 40.7145 13.8479 40.4005 14.5886 40.009C15.184 39.6942 15.8402 39.7076 16.3415 39.9972C16.8428 40.2865 17.1824 40.848 17.2076 41.5211C17.2389 42.3582 17.3209 43.1284 17.6236 43.8592C18.2051 45.263 19.3204 46.3784 20.7242 46.9599C21.3292 47.2105 21.9531 47.3076 22.6138 47.3526C23.2483 47.3959 24.0215 47.3959 24.9473 47.3959H25.0525C25.9786 47.3959 26.7515 47.3959 27.3863 47.3526C28.0469 47.3076 28.6708 47.2105 29.2758 46.9599C30.6796 46.3784 31.795 45.263 32.3765 43.8592C32.6792 43.1284 32.7611 42.3582 32.7923 41.5209C32.8175 40.848 33.1571 40.2865 33.6583 39.997C34.1596 39.7076 34.8158 39.6942 35.4113 40.0088C36.1519 40.4003 36.8598 40.7145 37.6442 40.8176C39.1506 41.0159 40.6742 40.6078 41.8796 39.6828C42.3992 39.284 42.7952 38.7924 43.1646 38.2428C43.5194 37.7149 43.9058 37.0455 44.3688 36.2436L44.4215 36.1524C44.8844 35.3505 45.2711 34.6809 45.5508 34.1097C45.8421 33.5151 46.0698 32.9261 46.1554 32.277C46.3538 30.7703 45.9454 29.2467 45.0204 28.0413C44.539 27.4138 43.9129 26.9578 43.2038 26.5122C42.6333 26.1538 42.3169 25.5788 42.3169 24.9999C42.3169 24.4211 42.6333 23.8463 43.2036 23.488C43.9131 23.0424 44.5392 22.5863 45.0206 21.9586C45.9456 20.7532 46.354 19.2296 46.1556 17.7232C46.07 17.074 45.8423 16.485 45.5511 15.8903C45.2713 15.3191 44.8848 14.6497 44.4217 13.8479L44.3692 13.7567C43.9061 12.9548 43.5196 12.2852 43.1648 11.7573C42.7954 11.2077 42.3994 10.7159 41.8798 10.3173C40.6744 9.39229 39.1508 8.98404 37.6442 9.18237C36.86 9.28562 36.1521 9.59971 35.4115 9.99117C34.8161 10.3059 34.1598 10.2925 33.6586 10.0031C33.1573 9.71369 32.8175 9.1521 32.7923 8.47906C32.7611 7.64192 32.6792 6.87175 32.3765 6.14096C31.795 4.73714 30.6796 3.62183 29.2758 3.04035C28.6708 2.78977 28.0469 2.6926 27.3863 2.64752C26.7515 2.60423 25.9786 2.60423 25.0525 2.60425H24.9473ZM21.92 5.92748C22.0808 5.86089 22.325 5.7995 22.8265 5.76527C23.3421 5.7301 24.0079 5.72925 25 5.72925C25.9921 5.72925 26.6579 5.7301 27.1733 5.76527C27.675 5.7995 27.9192 5.86089 28.0798 5.92748C28.7179 6.19179 29.225 6.69875 29.4892 7.33685C29.5727 7.53812 29.6417 7.85189 29.6696 8.59585C29.7313 10.2466 30.5833 11.8361 32.0961 12.7094C33.6086 13.5827 35.4113 13.5259 36.8717 12.754C37.5298 12.4061 37.8363 12.3091 38.0521 12.2806C38.7369 12.1905 39.4294 12.3761 39.9773 12.7965C40.1154 12.9024 40.2906 13.0832 40.5711 13.5004C40.8594 13.9293 41.1929 14.5055 41.689 15.3647C42.185 16.2239 42.5173 16.8009 42.7446 17.2649C42.9656 17.7164 43.0346 17.9586 43.0573 18.1311C43.1475 18.8158 42.9619 19.5084 42.5415 20.0563C42.4088 20.2291 42.1717 20.4459 41.5411 20.842C40.1425 21.7209 39.1921 23.2534 39.1919 24.9999C39.1919 26.7465 40.1423 28.2792 41.5411 29.1582C42.1715 29.5542 42.4086 29.7709 42.5413 29.9438C42.9617 30.4917 43.1473 31.1842 43.0571 31.869C43.0344 32.0415 42.9654 32.2836 42.7444 32.7351C42.5171 33.199 42.1848 33.7761 41.6888 34.6353C41.1927 35.4945 40.8592 36.0707 40.5708 36.4997C40.2904 36.9167 40.1152 37.0976 39.9771 37.2034C39.4292 37.624 38.7367 37.8095 38.0519 37.7195C37.8361 37.6909 37.5296 37.5938 36.8715 37.2461C35.4111 36.474 33.6083 36.4174 32.0956 37.2907C30.5833 38.164 29.7313 39.7534 29.6696 41.4042C29.6417 42.1482 29.5727 42.462 29.4892 42.6634C29.225 43.3013 28.7179 43.8084 28.0798 44.0728C27.9192 44.1392 27.675 44.2007 27.1733 44.2349C26.6579 44.2701 25.9921 44.2709 25 44.2709C24.0079 44.2709 23.3421 44.2701 22.8265 44.2349C22.325 44.2007 22.0808 44.1392 21.92 44.0728C21.2821 43.8084 20.775 43.3013 20.5107 42.6634C20.4273 42.462 20.3582 42.1482 20.3304 41.4042C20.2687 39.7536 19.4166 38.164 17.904 37.2907C16.3913 36.4174 14.5888 36.4742 13.1283 37.2461C12.4701 37.594 12.1638 37.6911 11.9478 37.7195C11.2631 37.8097 10.5705 37.624 10.0226 37.2036C9.88455 37.0978 9.70928 36.917 9.42889 36.4997C9.14066 36.0709 8.80701 35.4947 8.31097 34.6355C7.81491 33.7763 7.48274 33.1992 7.25543 32.7353C7.0343 32.2838 6.96539 32.0415 6.94268 31.869C6.85253 31.1842 7.0381 30.4917 7.45855 29.9438C7.59118 29.7711 7.82837 29.5542 8.45876 29.1582C9.85747 28.2795 10.808 26.7467 10.8081 25.0003C10.8082 23.2534 9.85762 21.7207 8.45878 20.8417C7.82853 20.4457 7.59137 20.229 7.45874 20.0561C7.0383 19.5082 6.85274 18.8157 6.94289 18.1309C6.9656 17.9584 7.03451 17.7162 7.25564 17.2648C7.48295 16.8007 7.81512 16.2237 8.31116 15.3645C8.80722 14.5054 9.14085 13.9292 9.4291 13.5003C9.70949 13.0831 9.88476 12.9023 10.0228 12.7964C10.5707 12.3759 11.2633 12.1904 11.948 12.2805C12.164 12.3089 12.4703 12.406 13.1286 12.7539C14.589 13.5258 16.3915 13.5826 17.9041 12.7094C19.4166 11.8361 20.2687 10.2467 20.3304 8.59596C20.3582 7.85194 20.4273 7.53815 20.5107 7.33685C20.775 6.69875 21.2821 6.19179 21.92 5.92748Z" fill="#0095DA"/>
</svg>