<svg width="39" height="39" viewBox="0 0 39 39" fill="none" xmlns="http://www.w3.org/2000/svg">
<path d="M11.7222 37H27.2778M19.5 37V27.6667M3.94444 2H35.0556C35.5713 2 36.0658 2.24583 36.4305 2.68342C36.7951 3.121 37 3.71449 37 4.33333V25.3333C37 25.9522 36.7951 26.5457 36.4305 26.9832C36.0658 27.4208 35.5713 27.6667 35.0556 27.6667H3.94444C3.42875 27.6667 2.93417 27.4208 2.56951 26.9832C2.20486 26.5457 2 25.9522 2 25.3333V4.33333C2 3.71449 2.20486 3.121 2.56951 2.68342C2.93417 2.24583 3.42875 2 3.94444 2Z" stroke="#0095DA" stroke-width="3" stroke-linecap="round" stroke-linejoin="round"/>
</svg>